<?xml version="1.0" standalone="no"?><!-- Generator: Gravit.io --><svg xmlns="http://www.w3.org/2000/svg" xmlns:xlink="http://www.w3.org/1999/xlink" style="isolation:isolate" viewBox="0 0 128 96" width="128" height="96"><defs><clipPath id="_clipPath_vNoy1SoZwu9mA4LcS7TmS39aUGhvJIDU"><rect width="128" height="96"/></clipPath></defs><g clip-path="url(#_clipPath_vNoy1SoZwu9mA4LcS7TmS39aUGhvJIDU)"><g id="Group"><rect x="30.267" y="24.906" width="14.667" height="15.836" transform="matrix(1,0,0,1,0,0)" fill="rgb(60,163,116)" vector-effect="non-scaling-stroke" stroke-width="0.556" stroke="rgb(0,0,0)" stroke-linejoin="miter" stroke-linecap="square" stroke-miterlimit="3"/><rect x="47.867" y="24.906" width="14.667" height="15.836" transform="matrix(1,0,0,1,0,0)" fill="rgb(60,163,116)" vector-effect="non-scaling-stroke" stroke-width="0.556" stroke="rgb(0,0,0)" stroke-linejoin="miter" stroke-linecap="square" stroke-miterlimit="3"/><rect x="47.867" y="7.75" width="14.667" height="15.836" transform="matrix(1,0,0,1,0,0)" fill="rgb(60,163,116)" vector-effect="non-scaling-stroke" stroke-width="0.556" stroke="rgb(0,0,0)" stroke-linejoin="miter" stroke-linecap="square" stroke-miterlimit="3"/><rect x="65.467" y="24.906" width="14.667" height="15.836" transform="matrix(1,0,0,1,0,0)" fill="rgb(60,163,116)" vector-effect="non-scaling-stroke" stroke-width="0.556" stroke="rgb(0,0,0)" stroke-linejoin="miter" stroke-linecap="square" stroke-miterlimit="3"/><rect x="65.467" y="7.75" width="14.667" height="15.836" transform="matrix(1,0,0,1,0,0)" fill="rgb(60,163,116)" vector-effect="non-scaling-stroke" stroke-width="0.556" stroke="rgb(0,0,0)" stroke-linejoin="miter" stroke-linecap="square" stroke-miterlimit="3"/><rect x="83.067" y="24.906" width="14.667" height="15.836" transform="matrix(1,0,0,1,0,0)" fill="rgb(60,163,116)" vector-effect="non-scaling-stroke" stroke-width="0.556" stroke="rgb(0,0,0)" stroke-linejoin="miter" stroke-linecap="square" stroke-miterlimit="3"/></g><polygon points="64,88.25,22.374,40.742,105.626,40.742" fill="rgb(235,235,235)" vector-effect="non-scaling-stroke" stroke-width="1.391" stroke="rgb(60,163,116)" stroke-linejoin="miter" stroke-linecap="square" stroke-miterlimit="3"/><g transform="matrix(1,0,0,1,38,40.742)"><text transform="matrix(1,0,0,1,1.5,18)" style="font-family:&quot;Reem Kufi&quot;;font-weight:400;font-size:15px;font-style:normal;fill:#000000;stroke:none;">C               O</text></g></g></svg>